<svg xmlns="http://www.w3.org/2000/svg" width="648.166" height="498.324" viewBox="0 0 648.166 498.324">
  <g id="Group_72" data-name="Group 72" transform="translate(-844 -211)">
    <g id="background_image" data-name="background image" transform="translate(844 211)">
      <g id="Layer_2" data-name="Layer 2" transform="translate(0)">
        <g id="OBJECTS">
          <ellipse id="Ellipse_9" data-name="Ellipse 9" cx="55.804" cy="5.357" rx="55.804" ry="5.357" transform="translate(164.406 487.61)" fill="#c8dbfb"/>
          <ellipse id="Ellipse_10" data-name="Ellipse 10" cx="55.804" cy="5.357" rx="55.804" ry="5.357" transform="translate(451.076 487.61)" fill="#c8dbfb"/>
          <path id="Path_298" data-name="Path 298" d="M432.86,78.968c-.159-.994-.332-1.974-.52-2.968" transform="translate(191.921 36.787)" fill="none" stroke="#c8dbfb" stroke-linecap="round" stroke-linejoin="round" stroke-width="1"/>
          <path id="Path_299" data-name="Path 299" d="M620.229,82.394c-9.962-34.845-41.7-31.476-70.386-31.417L40.882,52.06c-48.036.089-43.315,71.382-5.775,71.308,21.657,0,29.858,41.7-7.537,41.776-22.437,0-23.1,29.28-8.071,35.142" transform="translate(2.661 24.62)" fill="none" stroke="#c8dbfb" stroke-linecap="round" stroke-linejoin="round" stroke-width="1" stroke-dasharray="3.99 3.99"/>
          <path id="Path_300" data-name="Path 300" d="M17.24,152.06a16.323,16.323,0,0,0,2.888.252" transform="translate(7.693 73.602)" fill="none" stroke="#c8dbfb" stroke-linecap="round" stroke-linejoin="round" stroke-width="1"/>
          <path id="Path_301" data-name="Path 301" d="M27.542,153.25a7.091,7.091,0,0,1-5.658,8.2,6.937,6.937,0,0,1-7.977-5.812,7.092,7.092,0,0,1,5.651-8.2A6.952,6.952,0,0,1,27.542,153.25Z" transform="translate(6.169 71.314)" fill="#5193f4"/>
          <path id="Path_302" data-name="Path 302" d="M441.628,82.844a6.932,6.932,0,0,1-8.045,5.719,7.1,7.1,0,0,1-5.562-8.271,6.932,6.932,0,0,1,8.048-5.715,7.112,7.112,0,0,1,5.559,8.266Z" transform="translate(189.954 36.042)" fill="#5193f4"/>
          <path id="Path_303" data-name="Path 303" d="M87.871,138.706a126.648,126.648,0,0,1-4.23,16.977A293.625,293.625,0,0,1,69.2,190.662c-2.787,5.936-14.092,19.767-20.213,22.394a331.381,331.381,0,0,0-1-49.463c-1.689-15.137,3.61-26.609-2.166-40.648-.736-1.8-1.444-3.591-2.267-5.387-2.888-6.678-5.775-13.356-6.613-20.584-1.155-9.127,1.6-19.53,9.284-24.279,5.53-3.413,12.734-3.235,18.64-.549a34.995,34.995,0,0,1,14.236,13.1C89.214,100.626,91.033,120.482,87.871,138.706Z" transform="translate(16.327 33.947)" fill="#5193f4"/>
          <path id="Path_304" data-name="Path 304" d="M53.561,82.36c11.32,16.413,12.287,35.528,13.269,55.622a109.572,109.572,0,0,1-13.37,57.877" transform="translate(23.768 39.865)" fill="none" stroke="#0b43a4" stroke-linecap="round" stroke-linejoin="round" stroke-width="1"/>
          <path id="Path_305" data-name="Path 305" d="M66.581,314.613c-7.927-7.2-15.882-14.5-21.8-23.552-5.1-7.88-8.389-16.829-12.836-25.125-2.888-5.357-6.281-10.522-7.941-16.413S22.732,236.687,26.79,232.2s11.551-5.387,17.326-2.968S54.222,236.657,57.644,242a61.8,61.8,0,0,1,8.663,23.641c1.126,7.6.852,15.36,1.992,22.958a78.4,78.4,0,0,0,6.309,20.361c2.642,5.936,9.341,16.324,11.06,22.409C80.918,333.787,69.96,317.685,66.581,314.613Z" transform="translate(10.286 110.326)" fill="#00ad9f"/>
          <path id="Path_306" data-name="Path 306" d="M34,236.05c7.537,3.384,10.525,12.629,12.1,20.925,1.79,9.438,1.444,19.664,5.6,28.2,7.941,16.191,18.264,34.608,25.989,40.069" transform="translate(15.131 114.257)" fill="none" stroke="#00ad9f" stroke-linecap="round" stroke-linejoin="round" stroke-width="1"/>
          <path id="Path_307" data-name="Path 307" d="M32.822,272.123c-6.584-2.656-15.362-3.755-19.578,2.078-3.523,4.883-1.7,11.8.736,17.348,2.065,4.675,4.678,9.438,9.024,11.976a25.2,25.2,0,0,0,9.818,2.686,231.745,231.745,0,0,0,28.5,1.692,58.677,58.677,0,0,1,33.54,11.665C83.139,297.188,54.956,281.116,32.822,272.123Z" transform="translate(5.047 130.674)" fill="#0056ec"/>
          <path id="Path_308" data-name="Path 308" d="M18.21,281.23c8.374.371,16.82.965,24.848,3.413s39.82,17.408,44.758,23.745" transform="translate(8.123 136.125)" fill="none" stroke="#0b43a4" stroke-linecap="round" stroke-linejoin="round" stroke-width="1"/>
          <path id="Path_309" data-name="Path 309" d="M109.57,275.6a55.626,55.626,0,0,0-38.983-25.57c-11.637-1.6-23.606.638-35.1-1.855A44.833,44.833,0,0,1,6.252,226.661a47.126,47.126,0,0,1-4.406-36.677c2.7-9.231,8.865-17.972,17.788-20.94a27.5,27.5,0,0,1,15.146-.163,41.775,41.775,0,0,1,12.778,5.684c8.981,5.847,16.243,14.84,21.657,24.4,4.952,8.682,17.167,22.261,25.483,30.987,4.866,5.15,8.417,8.652,8.417,8.652C108.862,245.887,106.191,266.916,109.57,275.6Z" transform="translate(0.029 81.268)" fill="#52d2bc"/>
          <path id="Path_310" data-name="Path 310" d="M11.79,186.66c27.967,12.97,58.475,29.978,78.3,54.049" transform="translate(5.274 90.35)" fill="none" stroke="#00ad9f" stroke-linecap="round" stroke-linejoin="round" stroke-width="1"/>
          <path id="Path_311" data-name="Path 311" d="M83.391,244.381s-41.7-34.726-50.461-71.991c8.981,5.847,16.243,14.84,21.657,24.4,4.952,8.682,17.167,22.261,25.483,30.987C81.1,232.449,82.121,237.91,83.391,244.381Z" transform="translate(14.656 83.443)" fill="#5275a0" opacity="0.2"/>
          <path id="Path_312" data-name="Path 312" d="M81.53,140.215a293.629,293.629,0,0,1-14.438,34.979C64.306,181.13,53,194.961,46.879,197.588a331.381,331.381,0,0,0-1-49.463c-1.689-15.137,3.61-26.609-2.166-40.648-.736-1.8-1.444-3.591-2.267-5.387.534.178,1.054.371,1.559.594,9.5,4.185,13.89,14.514,14.7,24.546.679,8.281-.78,16.577-1.863,24.813a33.682,33.682,0,0,0-.116,11.412.366.366,0,0,1,0,.119,4.135,4.135,0,0,0,8.114-.312l2.6-13.816c.751-4.126,1.574-8.444,4.866-11.323a6.836,6.836,0,0,1,4.678-1.8A6.414,6.414,0,0,1,81.53,140.215Z" transform="translate(18.438 49.415)" fill="#5275a0" opacity="0.2"/>
          <path id="Path_313" data-name="Path 313" d="M86.632,267.684C80.048,232.349,76.6,226.9,79.485,218.058c3.7-11.293,1.617-22.646,5.1-34s5.847-23.522,3.046-35.1c-.9-3.651-2.686-7.628-6.959-7.791a6.84,6.84,0,0,0-4.678,1.855c-3.292,2.879-4.129,7.2-4.88,11.323L68.6,168.135a4.135,4.135,0,0,1-8.114.312v-.119a33.666,33.666,0,0,1,.1-11.412c1.083-8.236,2.541-16.532,1.877-24.813-.809-10.032-5.2-20.361-14.713-24.546a16.327,16.327,0,0,0-10.713-.876c-9.919,2.612-12.489,12.585-11.031,21.088,1.011,5.936,3.754,11.5,6.223,17.022,6.035,13.49,1.6,25.867,2.44,40.692C36.95,226.353,86.632,267.684,86.632,267.684Z" transform="translate(11.416 51.384)" fill="#7ee8d4"/>
          <path id="Path_314" data-name="Path 314" d="M37.22,113.69c4.895,25.14,9.847,50.457,19.347,74.2,2.787,6.96,4.158,16.1,20.286,35.023" transform="translate(16.56 55.03)" fill="none" stroke="#00ad9f" stroke-linecap="round" stroke-linejoin="round" stroke-width="1"/>
          <path id="Path_315" data-name="Path 315" d="M200.92,153.73c-5.068-5.936-9.746-12.006-14.669-17.808-3.191-3.784-6.483-7.42-10.107-10.982-1.776-1.751-3.61-3.443-5.544-5.09a154.983,154.983,0,0,0-37.842-23.745c-8.23-3.621-16.922-6.6-23.91-12.377S96.878,68.5,99.174,59.613c1.689-6.411,6.988-11.4,12.994-13.683a33.851,33.851,0,0,1,19.1-.7c17.615,3.9,32.327,16.918,42.333,32.307l.534.831c7.335,11.5,12.46,24.294,16.922,37.324,1.444,4.185,2.787,8.4,4.129,12.6C197.354,134.571,203.519,147.557,200.92,153.73Z" transform="translate(43.805 21.386)" fill="#5193f4"/>
          <path id="Path_316" data-name="Path 316" d="M113.66,55.07c19.217,3.769,32.818,16.844,47.068,30.616a107.906,107.906,0,0,1,29.425,51.259" transform="translate(50.486 26.656)" fill="none" stroke="#0b43a4" stroke-linecap="round" stroke-linejoin="round" stroke-width="1"/>
          <path id="Path_317" data-name="Path 317" d="M163.576,124.771a24.018,24.018,0,0,0,.274,6.174c-4.808-1.128-8.143-8.8-10.338-17.155a132.229,132.229,0,0,1-3.552-20.955,93.13,93.13,0,0,1,1.617-25.614c7.335,11.5,12.46,24.294,16.922,37.324q-2.3,7-3.927,14.187a42.289,42.289,0,0,0-1,6.04Z" transform="translate(66.48 32.537)" fill="#5275a0" opacity="0.2"/>
          <path id="Path_318" data-name="Path 318" d="M195.663,65.184c-1.617,7.42-5.977,13.8-9.8,20.3-2.036,3.413-3.913,6.93-5.674,10.492a161.98,161.98,0,0,0-12.792,35.943,29.916,29.916,0,0,0-.708,12.228c-9.471-2.211-13.24-29.888-13.889-38.125a91.853,91.853,0,0,1,7.219-43.556c2.6-5.936,5.934-11.872,11.089-15.612s12.417-5.15,17.86-1.825a14.825,14.825,0,0,1,6.411,9.1A23.288,23.288,0,0,1,195.663,65.184Z" transform="translate(67.73 20.89)" fill="#52d2bc"/>
          <path id="Path_319" data-name="Path 319" d="M160.7,132.689c-5.891-15.211-2.325-47.4,7.132-67.628,2.888-6.085,6.9-11.872,12.576-15.211" transform="translate(70.09 24.129)" fill="none" stroke="#00ad9f" stroke-linecap="round" stroke-linejoin="round" stroke-width="1"/>
          <path id="Path_320" data-name="Path 320" d="M188.685,61.606c-1.617,7.42-5.977,13.8-9.8,20.3-2.036,3.413-3.913,6.93-5.674,10.492a35.966,35.966,0,0,1-4.851-14.588c-.794-8.622,2.411-17.808,9.226-22.943a24.5,24.5,0,0,1,10.843-4.319,23.288,23.288,0,0,1,.26,11.056Z" transform="translate(74.708 24.468)" fill="#5275a0" opacity="0.2"/>
          <path id="Path_321" data-name="Path 321" d="M241.922,126.117a32.016,32.016,0,0,1-2.454,8.192c-4.2,9.349-12.994,17.378-26.234,23.893,0,0-.736-14.84-.881-18.729-.65-16.948-18.539-26.327-29.858-38.674-5.775-6.307-10.107-14.276-10.944-22.884s2.4-17.808,9.226-22.943c5.775-4.23,13.2-5.164,20.213-4.615,11.348.935,22.8,5.817,29.844,14.929a11.261,11.261,0,0,1,.837,1.069c4.331,6.07,6.54,13.46,8.172,20.776C242.687,99.923,243.957,113.191,241.922,126.117Z" transform="translate(76.121 24.305)" fill="#00ad9f"/>
          <path id="Path_322" data-name="Path 322" d="M181.27,59.55c12.373,6.574,24.79,14.544,31.995,26.8,10.107,17.111,7.869,39.371.116,57.7" transform="translate(80.492 28.824)" fill="none" stroke="#00ad9f" stroke-linecap="round" stroke-linejoin="round" stroke-width="1"/>
          <path id="Path_323" data-name="Path 323" d="M365.055,215.775c7.9-13.356,3.855-30.527,6.613-45.9a50.991,50.991,0,0,1,17.658-30.245c5.775-4.69,13.8-8.043,20.3-4.452,1.444.757,3.075,1.84,4.432.979a3.665,3.665,0,0,0,1.314-2.493c1.646-8.311-2.238-17.378.938-25.229,1.7-4.2,5.241-7.42,8.981-9.795A48.018,48.018,0,0,1,449.5,90.834a13.1,13.1,0,0,1,6.67,1.039c3.667,1.885,5.342,6.589,4.851,10.774a24.03,24.03,0,0,1-5.241,11.279c-8.288,11.145-20.43,20.777-22.033,34.7a9.208,9.208,0,0,0,.592,5.194c.751,1.484,2.166,2.6,2.96,4.111,2.556,4.823-2.382,10.284-7.219,12.659a40.883,40.883,0,0,1-14.034,3.992c-3.35.326-7.118.4-9.4,2.968-4.187,4.69.635,12.184-.245,18.491-.549,3.933-3.335,7.109-6.122,9.869a110.237,110.237,0,0,1-16.893,13.683c-4.909,3.235-10.107,6.085-14.438,10.077s-7.854,9.364-8.143,15.345" transform="translate(160.175 43.931)" fill="#52d2bc"/>
          <path id="Path_324" data-name="Path 324" d="M371,199.126c1.3-6.47,4.23-12.466,7.118-18.358,4.534-9.216,9.168-18.565,16.012-26.119,5.2-5.743,11.551-10.284,16.82-15.939a59.023,59.023,0,0,0,9.5-13.564,47.2,47.2,0,0,1,4.4-7.865c2.18-2.8,5.183-4.808,7.8-7.212A34.409,34.409,0,0,0,440.91,98.36" transform="translate(164.698 47.61)" fill="none" stroke="#00ad9f" stroke-linecap="round" stroke-linejoin="round" stroke-width="1"/>
          <path id="Path_325" data-name="Path 325" d="M479.949,194.68c-1.776,7.034-4.418,13.994-8.952,19.574a40.858,40.858,0,0,1-11.291,9.364,62.813,62.813,0,0,1-6.829,3.428,80.121,80.121,0,0,1-28.544,6.5c-14.265.549-28.876-2.686-42.622,1.484a42.6,42.6,0,0,0-24.372,19.827l1.863-12.169c3.451-13.089,6.974-26.416,14.019-37.887a98.954,98.954,0,0,1,16.734-19.856A139.616,139.616,0,0,1,423.409,160.9c9.933-4.957,20.964-8.444,31.937-7.064S477,162.328,480.5,173.132C482.692,180.062,481.739,187.631,479.949,194.68Z" transform="translate(158.635 74.317)" fill="#5193f4"/>
          <path id="Path_326" data-name="Path 326" d="M365.09,227.516a86.938,86.938,0,0,1,43.935-34.3c11.06-3.784,22.769-5.239,33.973-8.563s22.394-8.9,28.963-18.877" transform="translate(162.075 80.243)" fill="none" stroke="#0b43a4" stroke-linecap="round" stroke-linejoin="round" stroke-width="1"/>
          <path id="Path_327" data-name="Path 327" d="M370.993,309.433c.621-16.324,8.851-31.476,18.856-44.239,8.331-10.641,18.394-20.376,30.826-25.229,3.884-1.484,8.158-2.553,12.2-1.484s7.71,4.586,7.782,8.9c.072,3.606-2.3,6.767-4.779,9.32-8.158,8.414-18.77,13.8-28.617,19.945-17.008,10.566-33.208,24.679-39.922,43.883" transform="translate(163.073 115.224)" fill="#52d2bc"/>
          <path id="Path_328" data-name="Path 328" d="M374.23,292.091c10.4-23.834,37.294-45.144,55.053-47.8" transform="translate(166.131 118.245)" fill="none" stroke="#00ad9f" stroke-linecap="round" stroke-linejoin="round" stroke-width="1"/>
          <path id="Path_329" data-name="Path 329" d="M365.371,306.665c-.144-2.745,8.562-9.913,10.525-11.754a100.246,100.246,0,0,1,37.424-21.979c5.515-1.781,11.377-3.072,16.907-1.707s10.583,6.025,11.132,12.154-3.35,11.739-8.3,14.618-10.728,3.309-16.243,2.968c-8.519-.519-16.893-2.686-25.454-2.627S370.8,299.363,365.371,306.665Z" transform="translate(162.198 131.007)" fill="#00ad9f"/>
          <path id="Path_330" data-name="Path 330" d="M371.51,293.928c17.485-9.735,43.921-16.072,63.124-13.683" transform="translate(164.924 135.404)" fill="none" stroke="#00ad9f" stroke-linecap="round" stroke-linejoin="round" stroke-width="1"/>
          <path id="Path_331" data-name="Path 331" d="M224.961,121.2a32.015,32.015,0,0,1-2.454,8.192A146.049,146.049,0,0,1,209.671,77.14a29.593,29.593,0,0,1,4.23-16.77,11.263,11.263,0,0,1,.837,1.069c4.331,6.07,6.541,13.46,8.172,20.776C225.726,95.007,227,108.275,224.961,121.2Z" transform="translate(93.081 29.221)" fill="#5275a0" opacity="0.2"/>
          <path id="Path_332" data-name="Path 332" d="M283.316,137.787c13.066-4.779,26.624-8.578,38.492-15.924a34.048,34.048,0,0,0,9.6-8.222,16.865,16.865,0,0,0,3.537-12.05c-.577-4.333-3.277-8.489-2.368-12.778.606-2.82,2.657-5.016,4.23-7.42a24.18,24.18,0,0,0,2.96-19.708c-2.05-7.064-7.219-12.718-10.107-19.456a33.182,33.182,0,0,1-2.44-17.66c-10.959.148-20.964,6.292-31.764,8.355-8.244,1.558-16.82.712-24.978,2.642A40.075,40.075,0,0,0,241.113,68.1a21.3,21.3,0,0,0-19.145,6.589,29.462,29.462,0,0,0-7.508,21.162c3.364,55.547,34.305,84.59,34.305,84.59S278.335,139.6,283.316,137.787Z" transform="translate(95.207 11.893)" fill="#7ee8d4"/>
          <path id="Path_333" data-name="Path 333" d="M241.983,133.049c-1.357-13.7,3.306-27.232,8.663-39.861,5.212-12.318,11.2-24.383,19.261-34.934S288.2,38.62,300.227,33.53" transform="translate(107.332 16.23)" fill="none" stroke="#00ad9f" stroke-linecap="round" stroke-linejoin="round" stroke-width="1"/>
          <path id="Path_334" data-name="Path 334" d="M250.185,39.19A113.579,113.579,0,0,0,252.87,78" transform="translate(110.811 18.969)" fill="none" stroke="#00ad9f" stroke-linecap="round" stroke-linejoin="round" stroke-width="1"/>
          <path id="Path_335" data-name="Path 335" d="M253.36,66.819c13.572-8.9,34.45-14.38,50.534-13.445" transform="translate(112.487 25.785)" fill="none" stroke="#00ad9f" stroke-linecap="round" stroke-linejoin="round" stroke-width="1"/>
          <path id="Path_336" data-name="Path 336" d="M230.37,63.94c16.344,7.079,17.023,31.773,17.456,38.793" transform="translate(102.284 30.949)" fill="none" stroke="#00ad9f" stroke-linecap="round" stroke-linejoin="round" stroke-width="1"/>
          <path id="Path_337" data-name="Path 337" d="M245.54,82.755c12.5-9.216,30.58-11.991,43.878-8.563" transform="translate(109.016 35.226)" fill="none" stroke="#00ad9f" stroke-linecap="round" stroke-linejoin="round" stroke-width="1"/>
          <path id="Path_338" data-name="Path 338" d="M270.52,34.92a20.688,20.688,0,0,0-4.331,14.365" transform="translate(118.153 16.903)" fill="none" stroke="#00ad9f" stroke-linecap="round" stroke-linejoin="round" stroke-width="1"/>
          <path id="Path_339" data-name="Path 339" d="M268.64,43.167c5.775-2.968,13.471-3.725,21.657-1.6" transform="translate(119.269 19.533)" fill="none" stroke="#00ad9f" stroke-linecap="round" stroke-linejoin="round" stroke-width="1"/>
          <path id="Path_340" data-name="Path 340" d="M46.181,67.031c1.545-.089,12.013-8.058,16.041-10.744a11.053,11.053,0,0,0,3.09-2.671,4.082,4.082,0,0,0,.578-3.933,4.8,4.8,0,0,0-4.895-3.116c-5.227,0-7.031,1.781-9.573,4.452C43,59.967,46.181,67.031,46.181,67.031Z" transform="translate(20.276 22.531)" fill="#4a49ca"/>
          <path id="Path_341" data-name="Path 341" d="M80.8,84.228c4.548,2.107,9.428,4.215,14.438,3.562,1.935-.252,4.028-1.158,4.664-2.968a4.525,4.525,0,0,0-1.444-4.571,10.136,10.136,0,0,0-4.49-2.078c-6.064-1.484-14.583-.683-20.6,1.069A51.856,51.856,0,0,0,80.8,84.228Z" transform="translate(32.6 37.463)" fill="#4a49ca"/>
          <path id="Path_342" data-name="Path 342" d="M100.641,38.613c-2.036-1.321-4.331-3.087-4.331-5.565s2.512-4.363,4.923-4.378a9.983,9.983,0,0,1,6.468,2.968c7.667,6.916,6.714,14.84,6.714,14.84S102.908,40.082,100.641,38.613Z" transform="translate(42.785 13.877)" fill="#4a49ca"/>
          <path id="Path_343" data-name="Path 343" d="M105.117,23.932a9.931,9.931,0,0,1-4.678-3.428,3.339,3.339,0,0,1-.476-2.716c.52-1.484,1.444-2.968,5.212-2.211,11.911,2.226,14.438,10.611,14.438,10.611S108.279,25.327,105.117,23.932Z" transform="translate(44.36 7.441)" fill="#4a49ca"/>
          <path id="Path_344" data-name="Path 344" d="M127.67,39.4a18.605,18.605,0,0,0,12.72-6.693,12.113,12.113,0,0,0,2.556-4.868,5.38,5.38,0,0,0-1.444-5.12,5.169,5.169,0,0,0-6.18,0,12.9,12.9,0,0,0-3.927,5.357C130.124,30.783,127.67,39.4,127.67,39.4Z" transform="translate(56.704 10.503)" fill="#4a49ca"/>
          <path id="Path_345" data-name="Path 345" d="M85.575,219.4,50.924,187.956c-6.165-5.595-12.46-11.338-16.358-18.773-8.446-15.983-3.61-36.745,7.724-50.68S70.3,96.347,86.918,90.366s34.045-10.18,49.942-18.105C146.822,67.3,156.929,59.9,159.6,48.872a23.883,23.883,0,0,0-3.674-19.534A22.573,22.573,0,0,0,138.939,19.8" transform="translate(13.483 9.584)" fill="none" stroke="#0b43a4" stroke-linecap="round" stroke-linejoin="round" stroke-width="1"/>
          <path id="Path_346" data-name="Path 346" d="M139.754,26c-3.162,9.988-15.478,16.057-21.094,24.694" transform="translate(52.705 12.585)" fill="none" stroke="#0b43a4" stroke-linecap="round" stroke-linejoin="round" stroke-width="1"/>
          <path id="Path_347" data-name="Path 347" d="M102.65,33.69c2.426,2.627,5.328,4.793,7.45,7.7,4.461,6.129,4.837,16.072-1.776,22.261" transform="translate(45.599 16.307)" fill="none" stroke="#0b43a4" stroke-linecap="round" stroke-linejoin="round" stroke-width="1"/>
          <path id="Path_348" data-name="Path 348" d="M59.5,71.32A64.991,64.991,0,0,0,96,85.314" transform="translate(26.448 34.521)" fill="none" stroke="#0b43a4" stroke-linecap="round" stroke-linejoin="round" stroke-width="1"/>
          <path id="Path_349" data-name="Path 349" d="M43.841,94.4A37.627,37.627,0,0,1,55.954,54.05" transform="translate(18.747 26.162)" fill="none" stroke="#0b43a4" stroke-linecap="round" stroke-linejoin="round" stroke-width="1"/>
          <path id="Path_350" data-name="Path 350" d="M301.844,42.781a5.387,5.387,0,0,1,.751-5.253,3.71,3.71,0,0,1,4-.92c10.107,4.6,9.053,20.866,9.053,20.866S306.016,56.049,301.844,42.781Z" transform="translate(133.841 17.604)" fill="#4a49ca"/>
          <path id="Path_351" data-name="Path 351" d="M301.915,62.467c-6.584,12.2,16.777,11.264,25.18,4.111C327.095,66.578,307.575,51.975,301.915,62.467Z" transform="translate(133.524 28.4)" fill="#4a49ca"/>
          <path id="Path_352" data-name="Path 352" d="M322.456,44.414c-1.588-2.226-2.151-5.55-.433-7.672a5.676,5.676,0,0,1,5.487-1.692,12.666,12.666,0,0,1,6.165,3.858c7.681,9.824,4.072,19.441,4.072,19.441S325.041,48.08,322.456,44.414Z" transform="translate(142.494 16.891)" fill="#4a49ca"/>
          <path id="Path_353" data-name="Path 353" d="M386.287,63.819a5.533,5.533,0,0,1,1-5.55,4.52,4.52,0,0,1,3.422-1.039A10.174,10.174,0,0,1,394.2,58.3a11.26,11.26,0,0,1,5.371,5.491c2.888,6.114.924,13.668.924,13.668S387.7,68.553,386.287,63.819Z" transform="translate(171.328 27.687)" fill="#4a49ca"/>
          <path id="Path_354" data-name="Path 354" d="M372.105,77.96a14.67,14.67,0,0,0-15.492-2.582,7.971,7.971,0,0,0-3.277,2.582c-1.834,2.612-1.2,6.456.722,9.023a19.42,19.42,0,0,0,7.667,5.461c5.2,2.419,13.254,2.968,18.77,4.348C380.479,96.793,380.465,85.514,372.105,77.96Z" transform="translate(156.373 35.925)" fill="#4a49ca"/>
          <path id="Path_355" data-name="Path 355" d="M306.77,42.45c3.436,11.561,13.153,20.272,23.967,24.991s22.726,5.936,34.464,6.738,23.578,1.158,34.926,4.333c11.045,3.072,22.047,9.5,26.8,20.213,5.775,13.045.664,28.627-7.45,40.292S400.459,160.06,392.619,171.9c-3.6,5.432-6.6,11.8-5.876,18.343.967,8.711,8.114,15.122,14.741,20.643" transform="translate(136.191 20.547)" fill="none" stroke="#0b43a4" stroke-linecap="round" stroke-linejoin="round" stroke-width="1"/>
          <path id="Path_356" data-name="Path 356" d="M325.49,39.6a70,70,0,0,1,15.492,34.459" transform="translate(144.5 19.168)" fill="none" stroke="#0b43a4" stroke-linecap="round" stroke-linejoin="round" stroke-width="1"/>
          <path id="Path_357" data-name="Path 357" d="M307.39,63.727a52.469,52.469,0,0,0,13.543,2.449,20.37,20.37,0,0,0,13.225-5.936" transform="translate(136.466 29.158)" fill="none" stroke="#0b43a4" stroke-linecap="round" stroke-linejoin="round" stroke-width="1"/>
          <path id="Path_358" data-name="Path 358" d="M391.45,62.15a23.855,23.855,0,0,1,6.9,15.894c.217,5.936-2.989,13.149-6.844,17.586" transform="translate(173.774 30.083)" fill="none" stroke="#0b43a4" stroke-linecap="round" stroke-linejoin="round" stroke-width="1"/>
          <path id="Path_359" data-name="Path 359" d="M361.28,80.32a233.505,233.505,0,0,0,24.79,20.91c4.23,3.057,12.6,6.96,16.315,5.936" transform="translate(160.384 38.878)" fill="none" stroke="#0b43a4" stroke-linecap="round" stroke-linejoin="round" stroke-width="1"/>
          <path id="Path_360" data-name="Path 360" d="M457.841,204.635a62.814,62.814,0,0,1-6.829,3.428,80.123,80.123,0,0,1-28.544,6.5c-14.265.549-28.876-2.686-42.621,1.484a41.751,41.751,0,0,0-16.82,10.017c-.477.237-.953.5-1.444.787-1.141-9.928,22.942-22.869,30.32-26.238a85.168,85.168,0,0,1,42.376-7.6c6.324.519,12.807,1.8,18.019,5.491a19.626,19.626,0,0,1,5.544,6.129Z" transform="translate(160.5 93.3)" fill="#5275a0" opacity="0.2"/>
          <path id="Path_361" data-name="Path 361" d="M434.22,197.023c6.324.519,12.807,1.8,18.033,5.491s8.894,10.3,7.667,16.7c-1.444,7.42-8.908,12.288-16.243,13.208s-14.655-1.172-21.888-2.656a152.009,152.009,0,0,0-48.758-2.3,27.955,27.955,0,0,0-11.45,3.428c-1.141-9.928,22.957-22.869,30.32-26.238a85.141,85.141,0,0,1,42.318-7.628Z" transform="translate(160.5 95.243)" fill="#52d2bc"/>
          <path id="Path_362" data-name="Path 362" d="M365.91,220.81c11.969-10.8,42.665-18.135,64.38-15.775,6.54.712,13.139,2.716,18.163,7.079" transform="translate(162.439 99.03)" fill="none" stroke="#00ad9f" stroke-linecap="round" stroke-linejoin="round" stroke-width="1"/>
          <path id="Path_363" data-name="Path 363" d="M350.44,133.8l116.776-.252c13.713-.033,24.853,11.371,24.877,25.466h0c.024,14.083-11.06,25.522-24.761,25.555l-79.887.163" transform="translate(155.573 64.643)" fill="none" stroke="#0b43a4" stroke-linecap="round" stroke-linejoin="round" stroke-width="1" stroke-dasharray="4"/>
          <path id="Path_364" data-name="Path 364" d="M135.1,193.11l-81.677.178a13.818,13.818,0,0,0-9.92,4.263,14.606,14.606,0,0,0-4.056,10.236h0a14.2,14.2,0,0,0,14.034,14.365H77.293" transform="translate(17.55 93.472)" fill="none" stroke="#0b43a4" stroke-linecap="round" stroke-linejoin="round" stroke-width="1" stroke-dasharray="4"/>
          <path id="Path_365" data-name="Path 365" d="M21.681,243.459c-28.025.119-28.559,42.948,7.031,42.874l524.654-1.113c22.033,0,24.357-35.365-2.888-35.305-54.172.119-55.977-26.446-25.9-26.5" transform="translate(0.609 108.138)" fill="none" stroke="#c8dbfb" stroke-linecap="round" stroke-linejoin="round" stroke-width="1" stroke-dasharray="4"/>
          <path id="Path_366" data-name="Path 366" d="M24.161,238.035a7.092,7.092,0,0,1-5.648,8.213,6.937,6.937,0,0,1-7.985-5.814,7.091,7.091,0,0,1,5.664-8.2A6.937,6.937,0,0,1,24.161,238.035Z" transform="translate(4.67 112.36)" fill="#5193f4"/>
          <path id="Path_367" data-name="Path 367" d="M377.222,225.471a7.091,7.091,0,0,1-5.658,8.2,6.937,6.937,0,0,1-7.977-5.812,7.092,7.092,0,0,1,5.651-8.2,6.755,6.755,0,0,1,5.169,1.2A7.12,7.12,0,0,1,377.222,225.471Z" transform="translate(161.363 106.27)" fill="#0b43a4"/>
          <path id="Path_368" data-name="Path 368" d="M515.193,410.631l-434.43.92a10.644,10.644,0,0,1-10.511-10.759L69.66,104.979A10.648,10.648,0,0,1,80.128,94.16l434.43-.92a10.339,10.339,0,0,1,7.426,3.14A10.927,10.927,0,0,1,525.069,104l.606,295.828a10.661,10.661,0,0,1-10.482,10.8Z" transform="translate(30.958 45.131)" fill="#5275a0" opacity="0.2"/>
          <path id="Path_369" data-name="Path 369" d="M509.3,406.821l-434.43.92a10.644,10.644,0,0,1-10.511-10.759L63.77,101.169A10.649,10.649,0,0,1,74.209,90.35l434.43-.92A10.645,10.645,0,0,1,519.15,100.2l.621,295.783a10.945,10.945,0,0,1-3.049,7.647,10.356,10.356,0,0,1-7.419,3.186Z" transform="translate(28.344 43.287)" fill="#fff"/>
          <path id="Path_370" data-name="Path 370" d="M507.894,89.43l-432.568.92a11.282,11.282,0,0,0-8.082,3.469,11.924,11.924,0,0,0-3.324,8.329v10.21l455.409-.965v-10.24A11.6,11.6,0,0,0,507.894,89.43Z" transform="translate(28.41 43.287)" fill="#0056ec"/>
          <path id="Path_371" data-name="Path 371" d="M75.89,400.325l65.362-.134L140.6,104.75l-76.782.163.621,283.659a11.907,11.907,0,0,0,3.35,8.321A11.265,11.265,0,0,0,75.89,400.325Z" transform="translate(28.366 50.703)" fill="#c8dbfb"/>
          <path id="Path_372" data-name="Path 372" d="M508.758,92.4a7.731,7.731,0,0,1,7.609,7.806l.592,295.783a7.718,7.718,0,0,1-7.594,7.836l-434.445.92a7.716,7.716,0,0,1-7.609-7.791l-.592-295.8a7.747,7.747,0,0,1,7.594-7.836l434.445-.92h0m0-2.968h0l-434.43.92A10.648,10.648,0,0,0,63.86,101.169l.592,295.813a10.645,10.645,0,0,0,10.5,10.759h0l434.43-.92a10.341,10.341,0,0,0,7.422-3.166,10.929,10.929,0,0,0,3.06-7.638L519.269,100.2A10.645,10.645,0,0,0,508.758,89.43Z" transform="translate(28.383 43.287)" fill="#0056ec"/>
          <rect id="Rectangle_177" data-name="Rectangle 177" width="58.416" height="8.782" rx="2.79" transform="translate(104.185 419.773) rotate(-0.12)" fill="#fff"/>
          <rect id="Rectangle_178" data-name="Rectangle 178" width="57.619" height="59.225" rx="5.11" transform="translate(102.159 168.886) rotate(-0.12)" fill="#fff"/>
          <rect id="Rectangle_179" data-name="Rectangle 179" width="159.917" height="11.462" rx="3.64" transform="translate(181.444 348.893) rotate(-0.12)" fill="#c8dbfb"/>
          <rect id="Rectangle_180" data-name="Rectangle 180" width="128.572" height="11.472" rx="3.64" transform="translate(203.778 174.3)" fill="#c8dbfb"/>
          <rect id="Rectangle_181" data-name="Rectangle 181" width="167.93" height="11.462" rx="3.64" transform="translate(351.434 296.676) rotate(-0.12)" fill="#c8dbfb"/>
          <rect id="Rectangle_182" data-name="Rectangle 182" width="159.917" height="11.462" rx="3.64" transform="translate(181.478 372.623) rotate(-0.12)" fill="#c8dbfb"/>
          <rect id="Rectangle_183" data-name="Rectangle 183" width="159.917" height="11.462" rx="3.64" transform="translate(181.541 396.337) rotate(-0.12)" fill="#c8dbfb"/>
          <rect id="Rectangle_184" data-name="Rectangle 184" width="167.926" height="84.298" rx="6.01" transform="translate(351.52 338.97) rotate(-0.12)" fill="#c8dbfb"/>
          <path id="Path_373" data-name="Path 373" d="M83.483,98.529a3.788,3.788,0,0,1-2.263,3.507,3.609,3.609,0,0,1-4.017-.811,3.861,3.861,0,0,1-.8-4.126,3.682,3.682,0,0,1,3.4-2.34,3.6,3.6,0,0,1,2.607,1.094A3.808,3.808,0,0,1,83.483,98.529Z" transform="translate(33.825 45.867)" fill="#c8dbfb"/>
          <ellipse id="Ellipse_11" data-name="Ellipse 11" cx="3.682" cy="3.784" rx="3.682" ry="3.784" transform="translate(125.538 140.583)" fill="#c8dbfb"/>
          <path id="Path_374" data-name="Path 374" d="M105.073,98.479a3.683,3.683,0,1,1-3.7-3.769,3.735,3.735,0,0,1,3.7,3.769Z" transform="translate(43.407 45.843)" fill="#c8dbfb"/>
          <path id="Path_426" data-name="Path 426" d="M10.984.021A10.721,10.721,0,0,1,21.889,10.636,10.863,10.863,0,0,1,10.925,21.309,10.721,10.721,0,0,1,.02,10.694,10.863,10.863,0,0,1,10.984.021Z" transform="matrix(0.1, -0.995, 0.995, 0.1, 176.073, 189.483)" fill="#c8dbfb"/>
          <rect id="Rectangle_185" data-name="Rectangle 185" width="51.097" height="4.333" rx="1.37" transform="translate(105.916 233.261)" fill="#fff"/>
          <rect id="Rectangle_186" data-name="Rectangle 186" width="51.096" height="4.33" rx="1.37" transform="translate(106.423 242.293) rotate(-0.12)" fill="#fff"/>
          <path id="Path_375" data-name="Path 375" d="M155.026,200.1l-13.326.134.1,57.4H130.25a7.453,7.453,0,0,1-7.363-7.539l-.217-106.153a7.542,7.542,0,0,1,7.421-7.643h24.747Z" transform="translate(54.484 65.974)" fill="#c8dbfb"/>
          <path id="Path_376" data-name="Path 376" d="M241.517,136.16v1.484a7.322,7.322,0,0,1,7.219,7.42l.217,103.5a7.322,7.322,0,0,1-7.219,7.42l-110.12.237a7.322,7.322,0,0,1-7.219-7.42l-.217-103.5a7.322,7.322,0,0,1,7.219-7.42l110.091-.237V136.16m0,0h0l-110.106.237a8.786,8.786,0,0,0-8.663,8.9l.217,103.5a8.786,8.786,0,0,0,8.663,8.9h0l110.106-.237a8.786,8.786,0,0,0,8.663-8.9l-.188-103.5a8.786,8.786,0,0,0-8.663-8.9Z" transform="translate(54.507 65.906)" fill="#c8dbfb"/>
          <path id="Path_427" data-name="Path 427" d="M8.6-.035l150.78.9a8.927,8.927,0,0,1,8.741,8.959l.449,76.935a8.676,8.676,0,0,1-8.637,8.855l-150.78-.9A8.927,8.927,0,0,1,.413,85.755L-.036,8.821A8.676,8.676,0,0,1,8.6-.035Z" transform="translate(344.897 158.746) rotate(12.74)" fill="#c8dbfb"/>
          <path id="Path_377" data-name="Path 377" d="M143.314,340.045l-20.546.044-5.039-26.92,30.508-.059Z" transform="translate(52.292 151.557)" fill="#0056ec"/>
          <path id="Path_378" data-name="Path 378" d="M121.686,313.164c0,2.2-.4,5.936,1.025,5.936s.837-3.5,2.454-3.413c1.04,0-.491,11.694,3.422,11.976,2.7.193,2.209-5.7,2.483-9.394a1.706,1.706,0,0,1,1.5-1.753,1.682,1.682,0,0,1,1.82,1.4c0,1.855-.087,3.087,0,5.194.144,3.5,5.4,2.582,5.212-2.122s0-7.865,0-7.865Z" transform="translate(54.024 151.561)" fill="#c8dbfb"/>
          <path id="Path_379" data-name="Path 379" d="M119.76,329.337a5.471,5.471,0,0,1-1.227-.134,4.347,4.347,0,0,1-3.148-2.434c-2.094-4.556,3.422-13.119,3.638-13.49l.274,1.484c0,.089-4.837,7.42-2.888,11.546a3.273,3.273,0,0,0,2.44,1.855,3.991,3.991,0,0,0,1.04.1c7.392,0,20.04-14.187,20.213-14.351.52-.638,1.444,0,1.141.5C140.566,315.15,127.716,329.322,119.76,329.337Z" transform="translate(51.041 151.639)" fill="#0c2340"/>
          <path id="Path_380" data-name="Path 380" d="M285.7,76.134c-29.208-1.143-69.419,21.058-55.154,75.344-.3,4.586,2.368,7.865,5.212,6.96s.332-9.587.332-9.587c4.866-40.366,13.962-47.341,29.411-47.207h36.225c8.952,1.365,25.224,7.791,27.664,40.069l9.024,1.721C339.1,120.046,333.588,78.018,285.7,76.134Z" transform="translate(101.042 36.831)" fill="#5275a0" opacity="0.2"/>
          <path id="Path_381" data-name="Path 381" d="M285.7,72.954C256.488,71.8,216.278,94,230.543,148.284l5.544-2.627c4.866-40.351,13.962-47.341,29.411-47.192h36.225c8.952,1.35,25.657,9.513,28.1,41.82h8.591C339.1,116.867,333.588,74.839,285.7,72.954Z" transform="translate(101.042 35.292)" fill="#ef832b"/>
          <path id="Path_382" data-name="Path 382" d="M265.021,73.53l-4.331,9.809s.52,5.506,5.775,5.4,5.992-2.642,5.992-2.642l.679-11.249Z" transform="translate(115.74 35.591)" fill="#ffb9a3"/>
          <path id="Path_383" data-name="Path 383" d="M287.781,72.9c-4.952,8.993-7.132,11.783-13.6,13.134-8.374,1.751-17.773-4.051-13.4-18.358C264.333,56.009,269.719,57.8,275,58.25S293.123,63.221,287.781,72.9Z" transform="translate(115.288 28.017)" fill="#ffb9a3"/>
          <path id="Path_384" data-name="Path 384" d="M268.509,68.09a3.46,3.46,0,0,0-4.014.994,4.538,4.538,0,0,0-1.112,4.333,3.909,3.909,0,0,0-3.61,4.14c-1.444-3.309-.635-6.767-.91-10.166s.087-7.079,2.223-9.676a10.755,10.755,0,0,1,3.205-2.538,16.2,16.2,0,0,1,14.9-.223,8.861,8.861,0,0,0,6.714,1.217c6.367-1.588,10.107,2.849,6.266,7a5.04,5.04,0,0,1,3.147,2.226,1.064,1.064,0,0,1,0,.994,1.193,1.193,0,0,1-.592.371,6.765,6.765,0,0,1-3.35.267c.419.386,2.787.519,3.509,1.944,1.906,3.769-5.631,1.855-6.786,1.484,1.314.252,4.75,3.072,3.653,5.016-.217.386-4.866,3.161-9.746-2.671a8.98,8.98,0,0,0-4.144-3.072,6.553,6.553,0,0,0-3.97.638c-.939.356-3.321,1.855-4,.965S270.04,68.862,268.509,68.09Z" transform="translate(114.895 25.775)" fill="#0c2340"/>
          <path id="Path_385" data-name="Path 385" d="M299.536,118.354c-1.285,4.586-2.6,5.031-1.025,5.758s2.888-1.825,2.888-1.825l7.219,1.484s-1.632-4.838-2.772-5.417S299.536,118.354,299.536,118.354Z" transform="translate(132.207 57.163)" fill="#ffb9a3"/>
          <path id="Path_386" data-name="Path 386" d="M235.174,121.93c.953,2.419,1.213,2.434,2.527,5.343,2.527,5.55-3.379,14.321-7.046,4.749a27.954,27.954,0,0,1-1.025-7.42Z" transform="translate(101.955 59.019)" fill="#ffb9a3"/>
          <path id="Path_387" data-name="Path 387" d="M272.792,55.638c4.952.267,11.045-3.324,14.929,1.291.346.43,1.068-.134.751-.594-3.7-5.476-10.583-1.41-15.68-1.484-.534,0-.52.816,0,.846Z" transform="translate(120.936 25.881)" fill="#0c2340"/>
          <path id="Path_388" data-name="Path 388" d="M279.435,53.2c-3.393.594-6.656-1.039-10.107-.49a14.685,14.685,0,0,0-7.219,3.755c-.534.475.159,1.41.751,1.009,2.888-1.974,5.775-3.68,9.37-3.4,2.628.193,4.88.994,7.508.193a.556.556,0,0,0,.375-.683.538.538,0,0,0-.664-.386Z" transform="translate(116.285 25.457)" fill="#0c2340"/>
          <path id="Path_389" data-name="Path 389" d="M261.981,56.26a8.168,8.168,0,0,0-4.043,6.485c-.2,2.092-.26,6.93,1.8,8.118a.5.5,0,0,0,.618-.149.531.531,0,0,0-.011-.652c-1.328-1.38-1.444-5.105-1.343-6.871a8.137,8.137,0,0,1,3.306-6.337c.346-.267,0-.846-.332-.594Z" transform="translate(114.478 27.202)" fill="#0c2340"/>
          <path id="Path_390" data-name="Path 390" d="M288.221,62.914c-1.227-2.182-4.331-4.126-6.771-2.731a.451.451,0,0,0-.179.489.436.436,0,0,0,.4.327,10.486,10.486,0,0,1,3.046.208A5.375,5.375,0,0,1,287.6,63.3c.274.4.9,0,.65-.386Z" transform="translate(124.867 28.903)" fill="#0c2340"/>
          <path id="Path_391" data-name="Path 391" d="M174.8,214.42c15.319,5.773,28.616,23.834,25.556,36.953-3.436,14.84-13.384,21.222-13.384,21.222l-3.148-5.936s7.955-12.778,7.219-18.818c-1.1-9.676-12.994-16.131-12.994-16.131Z" transform="translate(77.621 103.787)" fill="#0b43a4"/>
          <path id="Path_392" data-name="Path 392" d="M152.3,327.14s-9.4,3.9-11.753,6.1h18.625v-6.085Z" transform="translate(62.42 158.347)" fill="#0c2340"/>
          <path id="Path_393" data-name="Path 393" d="M180.134,326.89a15.639,15.639,0,0,1,3.162,6.367H170.59a15.437,15.437,0,0,1,2.368-6.367Z" transform="translate(75.752 158.226)" fill="#0c2340"/>
          <path id="Path_394" data-name="Path 394" d="M182.569,362.637h-8.663c.173-10.507-1.935-46.317-3.971-73.089-1.2-15.7-2.382-28.315-3.075-30.868l4.649-1.054,17.542-4.007C192.04,267.733,185.11,332.467,182.569,362.637Z" transform="translate(74.097 122.761)" fill="#047f76"/>
          <path id="Path_395" data-name="Path 395" d="M159.143,256.907c-6.772,10.952-8.519,90.14-11.363,104.817l8.23.475A785.282,785.282,0,0,1,185.637,256.15Z" transform="translate(65.629 123.986)" fill="#009790"/>
          <path id="Path_396" data-name="Path 396" d="M180.61,256.15c-3.971,11.086-7.537,21.934-10.684,32.189-1.2-15.7-2.382-28.315-3.075-30.868l4.649-1.054Z" transform="translate(74.092 123.986)" fill="#5275a0" opacity="0.2"/>
          <path id="Path_397" data-name="Path 397" d="M159.143,256.907c-6.772,10.952-8.519,90.14-11.363,104.817l8.23.475A785.282,785.282,0,0,1,185.637,256.15Z" transform="translate(65.629 123.986)" fill="#009790"/>
          <path id="Path_398" data-name="Path 398" d="M159.551,198.169s-5.27,20.643,7.883,20.643l-.78,5.268,10.006,1.128-2.166-7.346s2.05-13.015,2.05-15.375C176.848,198.139,164.994,190.422,159.551,198.169Z" transform="translate(70.39 94.32)" fill="#ffb9a3"/>
          <rect id="Rectangle_188" data-name="Rectangle 188" width="3.883" height="16.844" transform="translate(193.496 269.371) rotate(-0.11)" fill="#0c2340"/>
          <rect id="Rectangle_189" data-name="Rectangle 189" width="27.909" height="6.395" rx="1.95" transform="translate(181.472 262.999) rotate(-0.11)" fill="#0056ec"/>
          <path id="Path_399" data-name="Path 399" d="M133.887,199.264c-.116-3.829-3.176-2.82-1.444-9.053,1.04-3.858,8.793.608,7.825,3.28s-2.079,6.9-2.079,6.9Z" transform="translate(58.587 91.34)" fill="#ffb9a3"/>
          <path id="Path_400" data-name="Path 400" d="M179.765,222.936c-19.679,1.336-20.979,8.162-29.786,7.094-12.994-1.588-10.756-26.46-9.139-35.379h-7.782s-14.034,56.675,30.32,46.2c-1.7,9.928,9.313,26.134-1.372,45.812,16.835,4.7,32.529,5.862,45.971-.089-2.353-3.25,4.822-36.2-9.226-59.9C195.994,222.06,181.209,222.832,179.765,222.936Z" transform="translate(58.159 94.218)" fill="#0056ec"/>
          <path id="Path_401" data-name="Path 401" d="M179.765,222.936c-19.679,1.336-20.979,8.162-29.786,7.094-12.994-1.588-10.756-26.46-9.139-35.379h-7.782s-14.034,56.675,30.32,46.2c-1.7,9.928,9.313,26.134-1.372,45.812,16.835,4.7,32.529,5.862,45.971-.089-2.353-3.25,4.822-36.2-9.226-59.9C195.994,222.06,181.209,222.832,179.765,222.936Z" transform="translate(58.159 94.218)" fill="#0056ec"/>
          <path id="Path_402" data-name="Path 402" d="M164.874,203.734c1.285.341,2.787.594,3.465,1.721a4.258,4.258,0,0,1,.375,2.478,1.939,1.939,0,0,1,3.826.386,3.492,3.492,0,0,1-.289,1.261,15.655,15.655,0,0,1-1.444,2.864c1.6.608,2.888,5.432,3.754,6.945,2.7-.7,8.663-3.087,9.24-12.926.245-4.586-1.112-10.077-5.949-13.134-3.422-2.152-9.1-2.182-12.994-1.158-3.162.831-8.23,4.1-5.862,7.9A9.893,9.893,0,0,0,164.874,203.734Z" transform="translate(70.336 92.702)" fill="#ef832b"/>
          <path id="Path_403" data-name="Path 403" d="M176.194,195.64a4.649,4.649,0,0,1,5.255,1.276,10.772,10.772,0,0,1,1.054,4.3,3.331,3.331,0,0,0,.91,1.914,3.839,3.839,0,0,0,2.426.772,53.164,53.164,0,0,1,6.353.208,5.789,5.789,0,0,1,4.822,3.577c.332,1.113.159,2.33.549,3.428.592,1.632,2.281,2.553,3.754,3.5a24.762,24.762,0,0,1,7.724,7.91,14.679,14.679,0,0,1,2.325,6.559c.144,2.33,1.776,5.417,1.343,7.7s-2.888,5.832-7.522,7.42c-8.085,2.686-10.655,3.844-18.409-.89-.924-.579-2.758-2.523-3.6-3.206a4.29,4.29,0,0,1-1.328-2.152,9.23,9.23,0,0,1,1.271-6.841c1.155-2.078,2.729-3.918,3.913-5.936a7.567,7.567,0,0,0,1.213-4.051,2.066,2.066,0,0,0-.534-1.484,2.253,2.253,0,0,0-1.242-.579c-1.7-.356-3.581,0-5.126-.772a3.731,3.731,0,0,1-1.863-4.23c.3-1.068,1.1-1.974,1.314-3.057a4.193,4.193,0,0,0-1.964-4.1,11.074,11.074,0,0,0-4.562-1.484,5.213,5.213,0,0,1-2.252-.742,3.183,3.183,0,0,1-1.141-2.567C170.924,198.905,173.364,196.6,176.194,195.64Z" transform="translate(75.88 94.533)" fill="#ef832b"/>
          <path id="Path_404" data-name="Path 404" d="M173.608,201.289c9.746,2.167-2.556,11.65,2.6,16.191,1.444,1.291,3.176.876,4.895,1.128,6.613.935,3,5.55,2.541,9.171a.48.48,0,0,0,.938.134c.563-2.508,2.787-5.55,1.632-8.222-1.011-2.33-3.523-2.063-5.573-2.122-2.584-.089-5.429,0-4.461-5.283a20.01,20.01,0,0,1,1.574-3.458,6.707,6.707,0,0,0,.563-3.933,5.306,5.306,0,0,0-4.562-4.126c-.332,0-.476.445-.144.519Z" transform="translate(77.008 97.18)" fill="#ef832b"/>
          <path id="Path_405" data-name="Path 405" d="M159.746,194.068c7.508-3.918,14.987-3.146,21.325,2.612a.441.441,0,0,0,.635,0,.471.471,0,0,0,0-.653,16.325,16.325,0,0,0-22.177-2.33.227.227,0,0,0-.034.273A.214.214,0,0,0,159.746,194.068Z" transform="translate(70.815 92.158)" fill="#ef832b"/>
          <path id="Path_406" data-name="Path 406" d="M335.323,209.18,332.06,215.9l7.955,3.339.852-7.732Z" transform="translate(147.415 101.251)" fill="#ffb9a3"/>
          <path id="Path_407" data-name="Path 407" d="M340.99,194.43c-18.033,8.073-10.641,27.618.332,25.333,5.357-1.128,8.057-18.8,8.057-18.8Z" transform="translate(146.542 94.111)" fill="#ffb9a3"/>
          <path id="Path_408" data-name="Path 408" d="M344.383,193.813a9.818,9.818,0,0,0-2.122-3.146,2.672,2.672,0,0,0-3.451-.178c-1.213,1.158-.505,3.324.736,4.452-1.068.134-2.325-.623-3.1.119s-.375,1.573,0,2.33a10.1,10.1,0,0,0,3.7,4.348c-.91.534-1.978,1.573-1.444,2.493.159.252.4.43.563.7.346.594,0,1.35-.347,1.959-.563.965-1.184,1.9-1.834,2.8a1.575,1.575,0,0,1,1.409-.46,1.609,1.609,0,0,1,1.176.92,3.179,3.179,0,0,1-2.094,3.918c-.505.119-2.686,7.064-.982,8.429,2.108,1.677,9.269.223,10.309-1.677a4.5,4.5,0,0,0,4.057,1.721,2.5,2.5,0,0,0,1.748-1.319,2.632,2.632,0,0,0,.085-2.228,4.143,4.143,0,0,0,4.712-1.283,4.43,4.43,0,0,0,.385-4.994c.881-.267,1.054-1.484.837-2.419a5.585,5.585,0,0,0-3.739-3.948,1.864,1.864,0,0,0,1.689-1.855,3.961,3.961,0,0,0-1.011-2.552,8.331,8.331,0,0,0-6.208-3.042C346.9,198.606,345.509,195.965,344.383,193.813Z" transform="translate(149.14 91.938)" fill="#4a49ca"/>
          <path id="Path_409" data-name="Path 409" d="M333.769,326.27s-10.554,5.209-11.969,6.827c0,0,20.762.965,22.379,0s-3.321-6.8-3.321-6.8Z" transform="translate(142.862 157.926)" fill="#0c2340"/>
          <path id="Path_410" data-name="Path 410" d="M360.458,322.794s-9.284,7.346-10.338,9.231c0,0,21.888-3.339,21.888-4.808s-4.62-5.936-4.62-5.936Z" transform="translate(155.431 155.511)" fill="#0c2340"/>
          <path id="Path_411" data-name="Path 411" d="M338,260.538c-.39,2.211-14.828,60.845,26.509,95.973l11.969-2.82s-13.933-13.356-20.5-37.605c-6.208-22.869-1.271-25.11,2.454-37.709,4.115-13.935,1.054-24.056,1.054-24.056Z" transform="translate(148.828 123.1)" fill="#d8742a"/>
          <path id="Path_412" data-name="Path 412" d="M326.038,258.806c-6.555,16.1-17.8,70.952,6.714,101.849H345s-9.645-10.863-10.713-36.077,5.154-36.27,9.558-44.6S352.3,257.53,352.3,257.53Z" transform="translate(141.035 124.654)" fill="#ef832b"/>
          <path id="Path_413" data-name="Path 413" d="M318.1,191.14c-3.263,11.783-4.331,33.569,11.969,42.34l10.9-2.731s-19.665-10.6-15.449-37.368Z" transform="translate(140.343 92.519)" fill="#0b43a4"/>
          <path id="Path_414" data-name="Path 414" d="M296.726,187.419l8.461-1.068s-1.025,36.581,40.037,39.55c31.345,2.36,33.8,62.8,33.8,62.8-10.107,6.99-27.057,9.112-48.787,7.509,0,0,1.444-43.126-2.065-54.909C328.172,241.348,294.055,230.352,296.726,187.419Z" transform="translate(131.667 90.2)" fill="#0056ec"/>
          <path id="Path_415" data-name="Path 415" d="M289.577,182.789c-1.444,1.707,4.548,3.873,10.352,6.634l7.421-.935q.076-1.557,0-3.116c-.1-1.588-.866-2.508-1.747-1.143s-4.649,1.84-6.411.594S291.006,181.082,289.577,182.789Z" transform="translate(128.464 88.196)" fill="#ffb9a3"/>
          <path id="Path_416" data-name="Path 416" d="M318.133,192.753c-2.729-2.76-2.007-2.582-2.007-2.582l8.3,1.929s1.834-4.17,3.379-4.289-1.17,2.879-.549,3.977-1.7,3.206-1.7,3.206Z" transform="translate(140.305 90.906)" fill="#ffb9a3"/>
          <path id="Path_417" data-name="Path 417" d="M345.085,195.533a11.527,11.527,0,0,1,4.851,1.825,3.822,3.822,0,0,1,1.025,4.868c-.476.772.65,1.38,1.155.7a4.761,4.761,0,0,0-.361-5.743,7.534,7.534,0,0,0-6.569-2.419A.4.4,0,0,0,345.085,195.533Z" transform="translate(153.074 94.24)" fill="#4a49ca"/>
          <path id="Path_418" data-name="Path 418" d="M350.649,206.211a2.779,2.779,0,0,1,1.6,3.22c-.448,1.321-1.762,2.107-2.815,2.864a.514.514,0,0,0-.115.647.484.484,0,0,0,.605.214,5.722,5.722,0,0,0,3.451-3.977,3.839,3.839,0,0,0-2.267-3.769A.463.463,0,0,0,350.649,206.211Z" transform="translate(155.046 99.397)" fill="#4a49ca"/>
          <path id="Path_419" data-name="Path 419" d="M337.137,212.649a9.9,9.9,0,0,0,12.4-1.38c.39-.43-.144-1.232-.635-.846a10.807,10.807,0,0,1-11.449,1.677A.318.318,0,0,0,337.137,212.649Z" transform="translate(149.601 101.803)" fill="#4a49ca"/>
          <path id="Path_420" data-name="Path 420" d="M351.043,197.109c2.195,2.152,0,5.09-1.444,6.93-.3.416.188.965.563.594a7.273,7.273,0,0,0,2.686-4.452,3.4,3.4,0,0,0-1.632-3.384c-.159-.089-.346.119-.2.252Z" transform="translate(155.158 95.246)" fill="#4a49ca"/>
          <path id="Path_421" data-name="Path 421" d="M182.449,21.251l-3.379-8.5L211.744,0Z" transform="translate(79.516)" fill="#0b43a4"/>
          <path id="Path_422" data-name="Path 422" d="M182.55,16.013,210.2,0,190.953,20.094Z" transform="translate(81.06)" fill="#5193f4"/>
          <path id="Path_423" data-name="Path 423" d="M173.89,9.29,214.043,0,181.369,12.748Z" transform="translate(77.217)" fill="#5193f4"/>
          <path id="Path_424" data-name="Path 424" d="M183.056,10.79l-1.646,5.239,5-3.621Z" transform="translate(80.554 5.223)" fill="#0056ec"/>
          <path id="Path_425" data-name="Path 425" d="M184.548,13.6c-8.519-1.484-20.1,7.42-15.117,16.621,1.689,3.146,10.439,1.781,9.789-1.692-.318-1.662-2.3-2.374-3.942-2.182-9.529,1.128-9.9,9.335-9.486,11.427,2.18,10.8,18.293,7.153,23.707,5.624" transform="translate(73.576 6.506)" fill="none" stroke="#c8dbfb" stroke-linecap="round" stroke-linejoin="round" stroke-width="1" stroke-dasharray="4"/>
        </g>
      </g>
    </g>
  </g>
</svg>
