<svg id="nushigh" xmlns="http://www.w3.org/2000/svg" width="303.695" height="163.061" viewBox="0 0 303.695 163.061">
  <path id="Path_446" data-name="Path 446" d="M330.981,172.261c2.26,0,2.855-2.018,2.855-3.907,0-1.739-.921-3.358-2.855-3.358-1.907,0-2.837,1.665-2.837,3.358,0,1.87.6,3.907,2.837,3.907m0-9.543a5.66,5.66,0,0,1,5.925,5.99,5.916,5.916,0,0,1-11.831,0A5.655,5.655,0,0,1,330.981,162.718Zm9.3,2.409h-2.176v-2.149h2.176V161.4c0-2.26,1.274-3.841,3.6-3.841a10.442,10.442,0,0,1,2.149.242l-.242,2.437a2.326,2.326,0,0,0-1.274-.4c-.986,0-1.293.856-1.293,1.73v1.4h2.567v2.149h-2.567v9.152h-2.939v-9.143m13.831-6.167h4.92l3.637,11.608h.046l3.646-11.608h4.911v15.319h-2.939v-12.64h-.047l-4.12,12.64H361.22l-4.12-12.64-.046.047v12.594h-2.939V158.96m24.406,13.431a2.508,2.508,0,0,0,2.065-1.014,3.754,3.754,0,0,0,.614-2.325h-1.274c-1.321,0-3.274.214-3.274,1.953,0,.977.819,1.386,1.87,1.386m-3.451-8.818a10.236,10.236,0,0,1,3.925-.856c3.451,0,4.874,1.423,4.874,4.762v1.451c0,1.144.019,2,.047,2.828.019.856.065,1.646.13,2.53h-2.586a12.8,12.8,0,0,1-.13-1.693h-.037a4.022,4.022,0,0,1-3.488,1.953c-2,0-3.953-1.209-3.953-3.358a3.313,3.313,0,0,1,1.935-3.228,8.94,8.94,0,0,1,3.795-.66h1.628c0-1.823-.809-2.437-2.549-2.437a5.907,5.907,0,0,0-3.488,1.228Zm12.668,1.553h-2.177v-2.149h2.177v-2.26l2.939-.939v3.209h2.614v2.149h-2.614V170.4c0,.967.26,1.86,1.386,1.86a2.642,2.642,0,0,0,1.339-.307l.084,2.325a7.7,7.7,0,0,1-2.176.26,3.317,3.317,0,0,1-3.572-3.665v-5.748m7.571-7.311h2.939v6.7h.047a4.2,4.2,0,0,1,3.553-1.8c2.679,0,3.841,1.888,3.841,4.427v7.134H402.75v-6.036c0-1.386-.019-3.246-1.907-3.246-2.13,0-2.586,2.307-2.586,3.748v5.534h-2.948V157.816m26.8,4.613a1.551,1.551,0,0,0-1.693-1.581,1.61,1.61,0,0,0-1.758,1.618c0,.856.856,1.581,1.451,2.176.772-.391,2-1.311,2-2.214m-2.679,5.116a2.834,2.834,0,0,0-1.87,2.456,2.387,2.387,0,0,0,2.6,2.26,3.752,3.752,0,0,0,2.679-.921l-3.4-3.795Zm5.209,1.758a5.418,5.418,0,0,0,.967-3.339h2.679a8.649,8.649,0,0,1-1.953,5.246l2.744,3.079H425.3l-1.032-1.367a5.884,5.884,0,0,1-4.167,1.628c-3.032,0-5.469-1.581-5.469-4.455,0-1.842.791-3.181,3.228-4.213-1.191-1.116-2.13-1.935-2.13-3.683,0-2.325,2.5-3.488,4.651-3.488s4.409.986,4.409,3.469c0,2.1-1.293,3.1-2.967,4.055l2.818,3.069Zm20.63-7.534a7.933,7.933,0,0,0-3.116-.66,2.134,2.134,0,0,0-2.418,2.13c0,2.66,6.716,1.535,6.716,6.669,0,3.358-2.651,4.632-5.748,4.632a13.181,13.181,0,0,1-3.925-.6l.288-2.762a7.422,7.422,0,0,0,3.469.939c1.163,0,2.725-.6,2.725-1.972,0-2.921-6.716-1.711-6.716-6.781,0-3.423,2.651-4.679,5.358-4.679a11.558,11.558,0,0,1,3.665.549l-.3,2.53m11.031,3.646a4.418,4.418,0,0,0-2-.419c-1.823,0-2.986,1.451-2.986,3.581,0,2.083.986,3.683,3.051,3.683a6.325,6.325,0,0,0,2.26-.521l.13,2.437a9.659,9.659,0,0,1-2.939.372c-3.711,0-5.571-2.521-5.571-5.971,0-3.274,1.935-5.86,5.46-5.86a9.582,9.582,0,0,1,2.855.372l-.26,2.325m5.423-2.437v11.3h-2.939v-11.3Zm0-4.874v2.809h-2.939V158.1Zm10.185,9.422c-.093-1.432-.744-2.66-2.391-2.66a2.57,2.57,0,0,0-2.614,2.66h5m1.981,6.12a7.755,7.755,0,0,1-3.888.9c-3.73,0-5.906-2.149-5.906-5.86,0-3.274,1.73-5.971,5.246-5.971,4.195,0,5.376,2.874,5.376,6.827H466.9a2.955,2.955,0,0,0,3.228,2.855,7.633,7.633,0,0,0,3.758-1.144v2.39Zm3.134-10.669h2.79v1.535h.046a4.227,4.227,0,0,1,3.711-1.8c2.679,0,3.841,1.888,3.841,4.427v7.134h-2.939v-6.036c0-1.386-.028-3.246-1.907-3.246-2.13,0-2.6,2.307-2.6,3.748v5.534H477.03v-11.3m20.732,2.437a4.448,4.448,0,0,0-2-.419c-1.823,0-2.986,1.451-2.986,3.581,0,2.083.986,3.683,3.051,3.683a6.326,6.326,0,0,0,2.26-.521l.13,2.437a9.658,9.658,0,0,1-2.939.372c-3.711,0-5.571-2.521-5.571-5.971,0-3.274,1.935-5.86,5.469-5.86a9.626,9.626,0,0,1,2.855.372l-.27,2.325m9.506,2.111c-.093-1.432-.744-2.66-2.39-2.66a2.564,2.564,0,0,0-2.614,2.66h5m1.972,6.12a7.755,7.755,0,0,1-3.888.9c-3.73,0-5.906-2.149-5.906-5.86,0-3.274,1.73-5.971,5.246-5.971,4.195,0,5.376,2.874,5.376,6.827h-7.813a2.955,2.955,0,0,0,3.228,2.855,7.6,7.6,0,0,0,3.748-1.144v2.39ZM350.44,23.441a1.227,1.227,0,0,0-1.228,1.228V47.205c-.242-.307-18.463-23.272-18.463-23.272a1.492,1.492,0,0,0-1-.493h-3.274a1.2,1.2,0,0,0-1.228,1.228v31.81a1.2,1.2,0,0,0,1.228,1.228h3.274a1.2,1.2,0,0,0,1.228-1.228V33.9C331.223,34.2,349.5,57.26,349.5,57.26a1.369,1.369,0,0,0,.949.446h3.274a1.2,1.2,0,0,0,1.228-1.228V24.668a1.2,1.2,0,0,0-1.228-1.228H350.44m33.838,0a1.227,1.227,0,0,0-1.228,1.228V43.485c0,5.664-2.9,8.78-8.157,8.78-5.367,0-8.2-3.032-8.2-8.78V24.678a1.2,1.2,0,0,0-1.228-1.228H361.9a1.2,1.2,0,0,0-1.228,1.228v19.3c0,8.743,5.451,14.175,14.222,14.175,8.753,0,14.184-5.432,14.184-14.175v-19.3a1.2,1.2,0,0,0-1.228-1.228h-3.572m8.1,9.069c0,6.567,5.665,8.576,9.794,10.045l2.567.828c3.618,1.1,5.832,1.9,5.832,4.381,0,2.958-2.214,4.595-6.223,4.595a10.611,10.611,0,0,1-7.469-2.725c-.047-.037-.084-.065-.084-.065a1.348,1.348,0,0,0-1-.167,1.14,1.14,0,0,0-.633.446l-.009-.009-2.26,2.837a1.26,1.26,0,0,0-.232.93,1.222,1.222,0,0,0,.465.809,17.106,17.106,0,0,0,11.236,3.711c7.506,0,12.343-4.074,12.343-10.371,0-6.846-6.39-8.966-9.822-10.1l-.7-.233-1.758-.567c-3.683-1.163-5.916-2.037-5.916-4.353,0-.912,0-3.674,6.371-3.674a10.956,10.956,0,0,1,6.353,2.13,1.194,1.194,0,0,0,.93.2,1.208,1.208,0,0,0,.818-.567.124.124,0,0,0-.046.009c.1-.093.437-.6,2-2.967a1.315,1.315,0,0,0,.2-.7.983.983,0,0,0-.037-.288,1.212,1.212,0,0,0-.558-.744,17.493,17.493,0,0,0-9.673-2.846c-7.822,0-12.492,3.534-12.492,9.459M348.616,68.561a1.235,1.235,0,0,0-1.237,1.228V82.857H331.27V69.789a1.206,1.206,0,0,0-1.237-1.228H326.47a1.2,1.2,0,0,0-1.228,1.228V101.6a1.211,1.211,0,0,0,1.228,1.237h3.562a1.208,1.208,0,0,0,1.237-1.237V88.391h16.11V101.6a1.243,1.243,0,0,0,1.237,1.237h3.562a1.206,1.206,0,0,0,1.228-1.237V69.789a1.2,1.2,0,0,0-1.228-1.228h-3.562m12.222,0a1.2,1.2,0,0,0-1.228,1.228V101.6a1.211,1.211,0,0,0,1.228,1.237H364.4a1.208,1.208,0,0,0,1.237-1.237V69.789a1.206,1.206,0,0,0-1.237-1.228h-3.562M369.9,85.675a17.643,17.643,0,0,0,17.644,17.6,17.457,17.457,0,0,0,8.3-2.056v.391a1.211,1.211,0,0,0,1.228,1.237h3.562a1.237,1.237,0,0,0,1.237-1.237V85.964a1.229,1.229,0,0,0-1.237-1.228h-12.9a1.2,1.2,0,0,0-1.228,1.228v3.321a1.2,1.2,0,0,0,1.228,1.228h8.1v3.823a11.75,11.75,0,1,1-8.3-20.286,11.779,11.779,0,0,1,7.339,2.511l.074.056a1.218,1.218,0,0,0,1.739-.372.163.163,0,0,0-.046.009c.093-.084.419-.577,1.907-2.874a1.061,1.061,0,0,0,.233-.688.8.8,0,0,0-.009-.149,1.251,1.251,0,0,0-.493-.837A17.712,17.712,0,0,0,369.9,85.675M430.96,68.561a1.235,1.235,0,0,0-1.237,1.228V82.857h-16.11V69.789a1.2,1.2,0,0,0-1.228-1.228h-3.562a1.2,1.2,0,0,0-1.228,1.228V101.6a1.206,1.206,0,0,0,1.228,1.237h3.562a1.2,1.2,0,0,0,1.228-1.237V88.391h16.11V101.6a1.243,1.243,0,0,0,1.237,1.237h3.562a1.208,1.208,0,0,0,1.237-1.237V69.789a1.206,1.206,0,0,0-1.237-1.228H430.96m-108.127,54.2c0,6.557,5.655,8.576,9.785,10.045l2.567.828c3.618,1.1,5.832,1.907,5.832,4.381,0,2.958-2.214,4.595-6.223,4.595a10.611,10.611,0,0,1-7.469-2.725l-.093-.056a1.3,1.3,0,0,0-1-.167,1.14,1.14,0,0,0-.632.446h-.009l-2.26,2.837a1.249,1.249,0,0,0-.233.93,1.222,1.222,0,0,0,.465.809,17.148,17.148,0,0,0,11.227,3.711c7.506,0,12.343-4.074,12.343-10.371,0-6.855-6.39-8.966-9.822-10.1l-.7-.233s-.009,0-1.758-.567c-3.683-1.163-5.916-2.028-5.916-4.353,0-.912,0-3.683,6.371-3.683a10.956,10.956,0,0,1,6.353,2.13,1.185,1.185,0,0,0,.93.2,1.208,1.208,0,0,0,.819-.567.391.391,0,0,1-.046.019c.1-.093.437-.6,2-2.967a1.323,1.323,0,0,0,.2-.707,1.174,1.174,0,0,0-.586-1.023,17.493,17.493,0,0,0-9.673-2.846c-7.8-.019-12.473,3.516-12.473,9.441m26.183,8.036a17.665,17.665,0,0,0,17.644,17.644,17.251,17.251,0,0,0,10.771-3.637,1.243,1.243,0,0,0,.307-1.646l-1.944-2.828a1.164,1.164,0,0,0-.716-.512,1.275,1.275,0,0,0-.967.149l-.558.353a11.629,11.629,0,0,1-18.416-9.534A11.64,11.64,0,0,1,374,121.68l.084.046a1.215,1.215,0,0,0,.93.2,1.27,1.27,0,0,0,.819-.567.189.189,0,0,1-.047.009c.1-.093.419-.586,1.907-2.883a1.055,1.055,0,0,0,.223-.688.8.8,0,0,0-.009-.149,1.251,1.251,0,0,0-.493-.837,17.6,17.6,0,0,0-10.752-3.572A17.849,17.849,0,0,0,349.016,130.8m55.807-17.04a1.163,1.163,0,0,0-1.163,1.163v13.133H387.4V114.918a1.14,1.14,0,0,0-1.163-1.163h-3.562a1.135,1.135,0,0,0-1.163,1.163v31.81a1.135,1.135,0,0,0,1.163,1.163h3.562a1.135,1.135,0,0,0,1.163-1.163V133.456h16.259v13.273a1.163,1.163,0,0,0,1.163,1.163h3.562a1.129,1.129,0,0,0,1.163-1.163v-31.81a1.14,1.14,0,0,0-1.163-1.163h-3.562m15.04,17.086a11.743,11.743,0,1,1,11.766,11.766,11.8,11.8,0,0,1-11.766-11.766m-5.971,0A17.719,17.719,0,1,0,431.63,113.2,17.663,17.663,0,0,0,413.893,130.842Zm43.762,0a11.734,11.734,0,1,1,11.757,11.766,11.8,11.8,0,0,1-11.757-11.766m-5.981,0A17.714,17.714,0,1,0,469.412,113.2,17.663,17.663,0,0,0,451.674,130.842Zm40.935-17.161a1.211,1.211,0,0,0-1.237,1.228v31.81a1.208,1.208,0,0,0,1.237,1.237h18.147a1.2,1.2,0,0,0,1.228-1.237v-3.079a1.206,1.206,0,0,0-1.228-1.237H497.409V114.9a1.2,1.2,0,0,0-1.228-1.228h-3.572M293.7,82.076H231.4a2.519,2.519,0,0,0-2.5,2.521v7.98a2.519,2.519,0,0,0,2.5,2.521h7.208a2.521,2.521,0,0,1,2.5,2.5v20.035a6.511,6.511,0,0,0,13.022,0V97.572a2.521,2.521,0,0,1,2.5-2.474H270.96a2.517,2.517,0,0,1,2.5,2.483v20.044a6.511,6.511,0,0,0,13.022,0V97.581a2.523,2.523,0,0,1,2.5-2.483h4.7a6.511,6.511,0,0,0,.019-13.022m15.4-28.6a.032.032,0,0,1-.019-.009s-7.106-4.1-16.054-9.273c8.957-5.171,16.082-9.283,16.082-9.283a2.348,2.348,0,0,0,.865-3.19l-4.186-7.246a2.346,2.346,0,0,0-3.19-.846c-.009,0-7.134,4.12-16.082,9.283V14.344A2.348,2.348,0,0,0,284.2,12h-8.362a2.344,2.344,0,0,0-2.335,2.344V32.909c-8.957-5.171-16.073-9.283-16.082-9.283a2.338,2.338,0,0,0-3.19.846l-4.186,7.246a2.339,2.339,0,0,0,.856,3.19s7.125,4.111,16.082,9.283c-8.957,5.171-16.073,9.283-16.073,9.283a2.339,2.339,0,0,0-.865,3.181l4.186,7.246a2.347,2.347,0,0,0,3.2.846s7.125-4.111,16.073-9.283V68.942a6.511,6.511,0,0,0,13.022,0V55.465c8.957,5.171,16.073,9.283,16.073,9.283a2.346,2.346,0,0,0,3.19-.846l4.186-7.246a2.343,2.343,0,0,0-.865-3.181" transform="translate(-208.288 -12)" fill="#fff"/>
  <path id="Path_447" data-name="Path 447" d="M85.514,241.717a6.52,6.52,0,0,0-13.04.019v.707a26.067,26.067,0,0,1-52.134-.177V135.72a6.52,6.52,0,1,0-13.04,0L7.319,242.5a39.1,39.1,0,0,0,78.186.279l.009-1.06" transform="translate(-7.3 -118.299)" fill="#fff"/>
</svg>
